# xmcd CD database file
#
# Track frame offsets:
#	150
#	14757
#	29914
#	45412
#	59884
#	77191
#	92122
#	101086
#	117745
#	131380
#	146851
#	164347
#	179818
#	195046
#
# Disc length: 2928 seconds
#
# Revision: 0
# Processed by: cddbd v1.5.2PL0 Copyright (c) Steve Scherf et al.
# Submitted via: CDex 1.51
#
DISCID=d50b6e0e
DTITLE=Thom Shepherd - Side Effects
DYEAR=2006
DGENRE=Country
TTITLE0=I Know This Guy
TTITLE1=Side Effects
TTITLE2=Cowboys and Soldiers
TTITLE3=Perfect Bad Day
TTITLE4=She  Hates This Place
TTITLE5=Can I Get An Amen
TTITLE6=Border To Border
TTITLE7=My Own Personal 9/11
TTITLE8=Friday Night Drunk
TTITLE9=Same Fool
TTITLE10=Riding On The Roses
TTITLE11=Hard Money Kentucky
TTITLE12=The Guy Song
TTITLE13=Thanks To You
EXTD=YEAR: 2006
EXTT0=
EXTT1=
EXTT2=
EXTT3=
EXTT4=
EXTT5=
EXTT6=
EXTT7=
EXTT8=
EXTT9=
EXTT10=
EXTT11=
EXTT12=
EXTT13=
PLAYORDER=
